<svg width="321" height="85" viewBox="0 0 321 85" fill="none" xmlns="http://www.w3.org/2000/svg">
<path d="M35.6585 46.1429L50.2927 42L62 52.3571L58.3415 66.8571L42.9756 71L32 59.9524L35.6585 46.1429Z" fill="#E39234" stroke="#E39234"/>
<path d="M39 14L26.7222 63.901L36.8333 73.604L0 84L2.16667 74.9901L39 14Z" fill="#43974E"/>
<path d="M46.7123 4L47.4384 4.69388L54.6986 10.9388L91 72L51.7945 36.6122L38 40.0816L46.7123 4Z" fill="#43974E"/>
<path d="M65.6053 57L94 82.9V83.6L86.7193 85H11L62.693 70.3L65.6053 57Z" fill="#43974E"/>
<path d="M144.547 32.207C144.547 32.4003 144.499 32.5163 144.402 32.555C144.305 32.5937 144.18 32.613 144.025 32.613C143.89 32.613 143.754 32.613 143.619 32.613C143.484 32.5937 143.348 32.584 143.213 32.584C142.942 32.584 142.672 32.6323 142.401 32.729C142.15 32.8063 142.005 33.0093 141.966 33.338C141.947 33.6667 141.937 34.005 141.937 34.353C141.937 34.701 141.937 35.049 141.937 35.397C141.937 36.9823 141.947 38.5773 141.966 40.182C142.005 41.7673 142.024 43.3623 142.024 44.967C142.024 46.6103 141.782 48.0507 141.299 49.288C140.816 50.506 140.033 51.4533 138.95 52.13C137.887 52.8067 136.466 53.145 134.687 53.145C132.116 53.145 130.086 52.5263 128.597 51.289C127.128 50.0323 126.393 48.07 126.393 45.402V33.86C126.393 33.7633 126.393 33.6667 126.393 33.57C126.412 33.454 126.412 33.3573 126.393 33.28C126.374 32.9127 126.18 32.6903 125.813 32.613C125.465 32.5357 125.146 32.497 124.856 32.497C124.721 32.497 124.576 32.5067 124.421 32.526C124.286 32.526 124.141 32.526 123.986 32.526C123.928 32.526 123.86 32.4873 123.783 32.41C123.764 32.3327 123.754 32.2263 123.754 32.091C123.754 31.8783 123.88 31.772 124.131 31.772C124.344 31.772 124.547 31.7817 124.74 31.801C124.933 31.801 125.127 31.8107 125.32 31.83C125.765 31.8493 126.2 31.8687 126.625 31.888C127.05 31.888 127.476 31.888 127.901 31.888C128.578 31.888 129.245 31.8687 129.902 31.83C130.579 31.7913 131.255 31.772 131.932 31.772C132.183 31.772 132.309 31.888 132.309 32.12C132.309 32.1973 132.29 32.294 132.251 32.41C132.212 32.5067 132.135 32.555 132.019 32.555C131.768 32.555 131.526 32.555 131.294 32.555C131.062 32.5357 130.82 32.526 130.569 32.526C130.356 32.526 130.115 32.584 129.844 32.7C129.573 32.816 129.419 32.9997 129.38 33.251C129.322 33.5603 129.303 33.8987 129.322 34.266C129.341 34.614 129.351 34.9523 129.351 35.281C129.351 37.0403 129.341 38.7997 129.322 40.559C129.303 42.3183 129.293 44.0777 129.293 45.837C129.293 47.229 129.438 48.389 129.728 49.317C130.018 50.245 130.559 50.9507 131.352 51.434C132.145 51.898 133.305 52.13 134.832 52.13C136.321 52.13 137.5 51.8207 138.37 51.202C139.259 50.5833 139.897 49.7423 140.284 48.679C140.671 47.6157 140.864 46.4073 140.864 45.054C140.864 43.1013 140.854 41.1487 140.835 39.196C140.835 37.2433 140.835 35.2907 140.835 33.338C140.835 33.0673 140.69 32.874 140.4 32.758C140.11 32.642 139.849 32.584 139.617 32.584C139.385 32.584 139.153 32.5937 138.921 32.613C138.689 32.6323 138.447 32.642 138.196 32.642C138.08 32.642 138.022 32.555 138.022 32.381C138.022 32.2263 138.022 32.091 138.022 31.975C138.041 31.859 138.148 31.801 138.341 31.801C138.612 31.801 138.892 31.8203 139.182 31.859C139.472 31.8783 139.752 31.888 140.023 31.888C140.99 31.888 141.947 31.859 142.894 31.801C143.145 31.801 143.387 31.7913 143.619 31.772C143.87 31.7527 144.112 31.743 144.344 31.743C144.46 31.743 144.518 31.801 144.518 31.917C144.537 32.033 144.547 32.1297 144.547 32.207ZM161.044 47.548C161.044 48.65 160.793 49.5683 160.29 50.303C159.787 51.0377 159.12 51.6273 158.289 52.072C157.477 52.4973 156.588 52.8067 155.621 53C154.674 53.174 153.746 53.261 152.837 53.261C151.658 53.261 150.546 53.0773 149.502 52.71C149.077 52.5553 148.661 52.391 148.255 52.217C147.849 52.0237 147.424 51.869 146.979 51.753C146.902 51.1343 146.766 50.4577 146.573 49.723C146.399 48.9883 146.312 48.3213 146.312 47.722C146.312 47.4513 146.351 47.2483 146.428 47.113C146.525 46.9583 146.728 46.881 147.037 46.881C147.308 46.881 147.482 46.9487 147.559 47.084C147.636 47.2 147.694 47.3643 147.733 47.577C147.81 47.8477 147.878 48.1183 147.936 48.389C147.994 48.6403 148.062 48.9013 148.139 49.172C148.526 50.332 149.096 51.144 149.85 51.608C150.623 52.072 151.609 52.304 152.808 52.304C153.794 52.304 154.674 52.1687 155.447 51.898C156.24 51.608 156.858 51.144 157.303 50.506C157.767 49.868 157.999 49.0173 157.999 47.954C157.999 47.1227 157.719 46.3783 157.158 45.721C156.597 45.0443 155.979 44.5127 155.302 44.126C155.147 44.0293 154.983 43.9423 154.809 43.865C154.635 43.7877 154.461 43.7103 154.287 43.633C153.688 43.3237 153.079 43.0143 152.46 42.705C151.861 42.3957 151.252 42.096 150.633 41.806C150.034 41.4967 149.415 41.11 148.777 40.646C148.158 40.1627 147.627 39.6117 147.182 38.993C146.757 38.3743 146.544 37.6977 146.544 36.963C146.544 35.7257 146.873 34.701 147.53 33.889C148.187 33.077 149.028 32.468 150.053 32.062C151.078 31.656 152.141 31.453 153.243 31.453C154.036 31.453 154.741 31.5497 155.36 31.743C155.998 31.9363 156.626 32.1393 157.245 32.352C157.864 32.5453 158.54 32.6807 159.275 32.758C159.333 33.338 159.391 33.918 159.449 34.498C159.507 35.078 159.594 35.658 159.71 36.238C159.729 36.3153 159.739 36.3927 159.739 36.47C159.758 36.5473 159.768 36.6247 159.768 36.702C159.768 37.0113 159.662 37.2143 159.449 37.311C159.256 37.3883 159.033 37.427 158.782 37.427C158.531 37.427 158.395 37.3787 158.376 37.282C158.357 37.1853 158.328 37.0403 158.289 36.847C158.038 35.3003 157.506 34.1403 156.694 33.367C155.882 32.5743 154.664 32.178 153.04 32.178C151.841 32.178 150.904 32.497 150.227 33.135C149.57 33.773 149.241 34.701 149.241 35.919C149.241 36.731 149.454 37.4173 149.879 37.978C150.304 38.5387 150.865 39.0317 151.561 39.457C152.276 39.863 153.05 40.2497 153.881 40.617C154.732 40.9843 155.573 41.3613 156.404 41.748C157.235 42.1347 157.999 42.589 158.695 43.111C159.41 43.6137 159.981 44.2227 160.406 44.938C160.831 45.6533 161.044 46.5233 161.044 47.548ZM181.917 37.195C181.917 37.4657 181.801 37.601 181.569 37.601C181.491 37.601 181.424 37.601 181.366 37.601C181.308 37.5817 181.259 37.5333 181.221 37.456C181.201 37.4173 181.172 37.3303 181.134 37.195C181.114 37.0403 181.105 36.934 181.105 36.876C181.008 36.296 180.863 35.658 180.67 34.962C180.496 34.2467 180.215 33.6667 179.829 33.222C179.635 32.99 179.307 32.8353 178.843 32.758C178.379 32.6807 177.905 32.642 177.422 32.642C176.938 32.642 176.561 32.642 176.291 32.642C176.001 32.642 175.643 32.642 175.218 32.642C174.812 32.642 174.444 32.7193 174.116 32.874C173.806 33.0287 173.652 33.338 173.652 33.802C173.652 36.7213 173.661 39.6503 173.681 42.589C173.719 45.5083 173.739 48.4373 173.739 51.376C173.739 51.6273 173.845 51.8207 174.058 51.956C174.27 52.072 174.512 52.1493 174.783 52.188C175.053 52.2267 175.276 52.246 175.45 52.246C175.604 52.246 175.74 52.246 175.856 52.246C175.991 52.2267 176.126 52.217 176.262 52.217C176.455 52.217 176.552 52.304 176.552 52.478C176.552 52.5553 176.552 52.6713 176.552 52.826C176.552 52.9613 176.484 53.029 176.349 53.029C175.653 53.029 174.957 53.0193 174.261 53C173.584 52.9613 172.898 52.942 172.202 52.942C171.274 52.942 170.326 52.971 169.36 53.029C169.147 53.029 168.925 53.0387 168.693 53.058C168.461 53.0773 168.238 53.087 168.026 53.087C167.852 53.087 167.765 52.9807 167.765 52.768C167.765 52.536 167.794 52.391 167.852 52.333C167.91 52.275 168.045 52.246 168.258 52.246C168.296 52.246 168.335 52.2557 168.374 52.275C168.432 52.275 168.47 52.275 168.49 52.275C168.702 52.275 168.973 52.2557 169.302 52.217C169.63 52.1783 169.92 52.101 170.172 51.985C170.442 51.8497 170.578 51.6467 170.578 51.376C170.597 49.8873 170.607 48.3987 170.607 46.91C170.626 45.4213 170.636 43.9327 170.636 42.444C170.636 40.9747 170.626 39.515 170.607 38.065C170.587 36.5957 170.578 35.1263 170.578 33.657C170.578 33.425 170.481 33.2123 170.288 33.019C170.114 32.8257 169.92 32.7193 169.708 32.7C169.534 32.6613 169.35 32.642 169.157 32.642C168.983 32.642 168.799 32.642 168.606 32.642H166.025C165.329 32.642 164.807 32.816 164.459 33.164C164.13 33.4927 163.898 33.9277 163.763 34.469C163.627 34.991 163.502 35.5323 163.386 36.093C163.386 36.1317 163.357 36.267 163.299 36.499C163.26 36.7117 163.212 36.9243 163.154 37.137C163.115 37.3303 163.086 37.4367 163.067 37.456C162.989 37.5527 162.873 37.601 162.719 37.601C162.506 37.601 162.4 37.4947 162.4 37.282C162.4 37.2047 162.4 37.108 162.4 36.992C162.419 36.8567 162.438 36.702 162.458 36.528C162.496 36.0833 162.525 35.5517 162.545 34.933C162.583 34.295 162.612 33.7053 162.632 33.164C162.651 32.9707 162.661 32.7773 162.661 32.584C162.661 32.3907 162.67 32.2167 162.69 32.062C162.69 31.7913 162.854 31.6753 163.183 31.714C164.594 31.8493 166.015 31.917 167.446 31.917C168.896 31.8977 170.326 31.888 171.738 31.888H174.203C174.995 31.888 175.788 31.888 176.581 31.888C177.393 31.8687 178.205 31.8493 179.017 31.83C179.365 31.8107 179.722 31.801 180.09 31.801C180.476 31.7817 180.853 31.772 181.221 31.772C181.472 31.772 181.617 31.8687 181.656 32.062C181.675 32.12 181.694 32.3327 181.714 32.7C181.733 33.048 181.752 33.454 181.772 33.918C181.791 34.3627 181.801 34.788 181.801 35.194C181.82 35.5807 181.83 35.8513 181.83 36.006C181.849 36.1993 181.868 36.3927 181.888 36.586C181.907 36.7793 181.917 36.9823 181.917 37.195ZM196.081 44.387C195.462 42.647 194.844 40.907 194.225 39.167C193.606 37.4077 192.988 35.658 192.369 33.918C191.77 35.658 191.161 37.398 190.542 39.138C189.923 40.878 189.314 42.6277 188.715 44.387H196.081ZM204.259 52.565C204.259 52.681 204.24 52.7873 204.201 52.884C204.182 52.9613 204.114 53 203.998 53C203.863 53 203.524 52.9903 202.983 52.971C202.461 52.9517 202.007 52.942 201.62 52.942C201.021 52.942 200.421 52.942 199.822 52.942C199.242 52.942 198.652 52.9613 198.053 53C197.744 53.0193 197.425 53.029 197.096 53.029C196.787 53.0483 196.477 53.058 196.168 53.058C196.071 53.058 196.004 53.029 195.965 52.971C195.946 52.8937 195.936 52.8163 195.936 52.739L195.965 52.507C195.965 52.449 195.984 52.391 196.023 52.333C196.062 52.2557 196.12 52.217 196.197 52.217H197.618C197.792 52.217 197.985 52.1783 198.198 52.101C198.43 52.0237 198.546 51.8787 198.546 51.666C198.546 51.608 198.478 51.3857 198.343 50.999C198.208 50.593 198.043 50.1097 197.85 49.549C197.657 48.969 197.454 48.389 197.241 47.809C197.028 47.229 196.845 46.7167 196.69 46.272C196.535 45.808 196.429 45.5083 196.371 45.373H188.454C188.396 45.547 188.28 45.866 188.106 46.33C187.932 46.7747 187.739 47.287 187.526 47.867C187.333 48.447 187.13 49.0173 186.917 49.578C186.724 50.1387 186.559 50.622 186.424 51.028C186.308 51.4147 186.25 51.6563 186.25 51.753C186.25 52.0237 186.395 52.1977 186.685 52.275C186.975 52.3523 187.217 52.391 187.41 52.391C187.603 52.391 187.777 52.391 187.932 52.391C188.087 52.391 188.212 52.3813 188.309 52.362C188.348 52.362 188.415 52.362 188.512 52.362C188.628 52.3427 188.696 52.333 188.715 52.333C188.831 52.333 188.899 52.4007 188.918 52.536C188.957 52.6713 188.966 52.7777 188.947 52.855C188.928 52.9323 188.879 52.9807 188.802 53C188.744 53 188.676 53 188.599 53C188.038 53 187.468 52.9903 186.888 52.971C186.308 52.9517 185.738 52.942 185.177 52.942C184.752 52.942 184.336 52.9517 183.93 52.971C183.524 52.9903 183.108 53 182.683 53C182.509 53 182.422 52.9033 182.422 52.71C182.422 52.4393 182.557 52.304 182.828 52.304C182.925 52.304 183.041 52.3137 183.176 52.333C183.311 52.333 183.456 52.333 183.611 52.333C183.824 52.333 184.036 52.275 184.249 52.159C184.481 52.0237 184.674 51.7917 184.829 51.463C184.926 51.289 185.119 50.825 185.409 50.071C185.699 49.317 186.057 48.3793 186.482 47.258C186.907 46.1173 187.352 44.8993 187.816 43.604C188.299 42.2893 188.773 40.9843 189.237 39.689C189.701 38.3937 190.117 37.195 190.484 36.093C190.871 34.991 191.18 34.0823 191.412 33.367C191.644 32.6323 191.76 32.1973 191.76 32.062C191.76 32.0233 191.731 31.975 191.673 31.917C191.615 31.8397 191.586 31.7913 191.586 31.772C191.586 31.6947 191.615 31.6463 191.673 31.627C191.866 31.5883 192.069 31.5593 192.282 31.54C192.495 31.5207 192.698 31.5013 192.891 31.482C193.142 31.4433 193.394 31.4143 193.645 31.395C193.896 31.3563 194.148 31.3273 194.399 31.308L201.91 51.608C201.987 51.8013 202.132 51.956 202.345 52.072C202.577 52.1687 202.79 52.217 202.983 52.217C203.157 52.217 203.331 52.217 203.505 52.217C203.698 52.1977 203.892 52.188 204.085 52.188C204.162 52.188 204.211 52.2363 204.23 52.333C204.249 52.4297 204.259 52.507 204.259 52.565ZM214.856 52.478C214.856 52.5553 214.846 52.6617 214.827 52.797C214.808 52.913 214.74 52.971 214.624 52.971C214.392 52.971 214.16 52.9613 213.928 52.942C213.715 52.9227 213.493 52.913 213.261 52.913C212.314 52.855 211.347 52.826 210.361 52.826C209.936 52.826 209.51 52.8357 209.085 52.855C208.66 52.8743 208.234 52.8937 207.809 52.913C207.616 52.9323 207.413 52.9517 207.2 52.971C207.007 52.9903 206.804 53 206.591 53C206.436 53 206.359 52.9033 206.359 52.71C206.359 52.5747 206.369 52.449 206.388 52.333C206.407 52.217 206.504 52.159 206.678 52.159C206.871 52.159 207.055 52.1687 207.229 52.188C207.403 52.188 207.587 52.188 207.78 52.188C208.012 52.188 208.283 52.13 208.592 52.014C208.921 51.898 209.085 51.7047 209.085 51.434V33.425C209.085 33.0963 208.959 32.8837 208.708 32.787C208.457 32.671 208.157 32.613 207.809 32.613C207.48 32.613 207.171 32.6227 206.881 32.642C206.61 32.642 206.456 32.5937 206.417 32.497C206.398 32.4583 206.388 32.3713 206.388 32.236C206.388 32.1587 206.398 32.0717 206.417 31.975C206.436 31.859 206.494 31.801 206.591 31.801C207.229 31.801 207.867 31.8203 208.505 31.859C209.162 31.8977 209.81 31.917 210.448 31.917H211.753C212.062 31.917 212.372 31.917 212.681 31.917C213.01 31.917 213.329 31.9073 213.638 31.888C213.793 31.8687 213.938 31.859 214.073 31.859C214.228 31.8397 214.373 31.83 214.508 31.83C214.721 31.83 214.827 31.9363 214.827 32.149C214.827 32.265 214.817 32.3713 214.798 32.468C214.779 32.5647 214.692 32.613 214.537 32.613C214.305 32.613 214.073 32.613 213.841 32.613C213.628 32.5937 213.406 32.584 213.174 32.584C212.942 32.584 212.691 32.6613 212.42 32.816C212.169 32.9513 212.043 33.1543 212.043 33.425V51.434C212.043 51.6853 212.159 51.869 212.391 51.985C212.623 52.101 212.855 52.159 213.087 52.159C213.338 52.159 213.58 52.159 213.812 52.159C214.063 52.1397 214.315 52.13 214.566 52.13C214.759 52.13 214.856 52.246 214.856 52.478ZM238.784 32.236C238.784 32.294 238.764 32.381 238.726 32.497C238.687 32.5937 238.619 32.642 238.523 32.642C238.368 32.642 238.213 32.642 238.059 32.642C237.904 32.6227 237.749 32.613 237.595 32.613C237.073 32.613 236.705 32.671 236.493 32.787C236.299 32.8837 236.183 33.0577 236.145 33.309C236.125 33.5603 236.116 33.9083 236.116 34.353V52.652C236.116 52.826 236.048 52.913 235.913 52.913L234.608 52.942C234.53 52.5167 234.385 52.0913 234.173 51.666C233.979 51.2407 233.747 50.854 233.477 50.506C231.389 47.7607 229.301 45.0347 227.213 42.328C225.125 39.602 223.066 36.8567 221.036 34.092V51.405C221.036 51.6757 221.132 51.869 221.326 51.985C221.538 52.0817 221.77 52.1397 222.022 52.159C222.292 52.159 222.524 52.159 222.718 52.159C222.872 52.159 223.017 52.159 223.153 52.159C223.307 52.1397 223.462 52.13 223.617 52.13C223.791 52.13 223.878 52.2363 223.878 52.449C223.878 52.6037 223.858 52.739 223.82 52.855C223.8 52.971 223.684 53.029 223.472 53.029C223.298 53.029 223.114 53.0193 222.921 53C222.747 52.9613 222.573 52.9323 222.399 52.913C222.109 52.8743 221.809 52.8647 221.5 52.884C221.19 52.884 220.891 52.884 220.601 52.884C220.059 52.884 219.528 52.913 219.006 52.971C218.503 53.0097 217.981 53.029 217.44 53.029C217.304 53.029 217.237 52.942 217.237 52.768C217.237 52.478 217.266 52.304 217.324 52.246C217.382 52.188 217.546 52.159 217.817 52.159C217.971 52.159 218.116 52.1687 218.252 52.188C218.406 52.188 218.551 52.188 218.687 52.188C218.996 52.188 219.267 52.1493 219.499 52.072C219.75 51.9947 219.885 51.7723 219.905 51.405C219.943 50.477 219.953 49.5393 219.934 48.592C219.914 47.6447 219.905 46.707 219.905 45.779C219.905 43.749 219.914 41.719 219.934 39.689C219.972 37.659 219.992 35.6193 219.992 33.57C219.992 33.222 219.895 32.9803 219.702 32.845C219.528 32.6903 219.305 32.6033 219.035 32.584C218.764 32.5647 218.493 32.555 218.223 32.555C218.126 32.555 218.02 32.5647 217.904 32.584C217.788 32.584 217.681 32.584 217.585 32.584C217.333 32.584 217.208 32.4873 217.208 32.294C217.208 32.1587 217.217 32.0427 217.237 31.946C217.275 31.83 217.382 31.772 217.556 31.772C218.058 31.772 218.561 31.7913 219.064 31.83C219.566 31.8493 220.069 31.859 220.572 31.859C220.92 31.859 221.268 31.859 221.616 31.859C221.983 31.8397 222.341 31.83 222.689 31.83C223.404 32.7967 224.139 33.744 224.893 34.672C225.647 35.6 226.401 36.528 227.155 37.456C228.469 39.0607 229.784 40.6653 231.099 42.27C232.413 43.8553 233.728 45.4503 235.043 47.055V33.367C235.043 33.0963 234.898 32.903 234.608 32.787C234.318 32.671 234.066 32.613 233.854 32.613C233.602 32.613 233.361 32.6227 233.129 32.642C232.897 32.6613 232.655 32.671 232.404 32.671C232.268 32.671 232.201 32.5743 232.201 32.381C232.201 32.323 232.201 32.265 232.201 32.207C232.201 32.1297 232.21 32.0717 232.23 32.033C232.23 31.859 232.336 31.772 232.549 31.772C232.819 31.772 233.1 31.7913 233.39 31.83C233.68 31.8493 233.96 31.859 234.231 31.859C234.965 31.859 235.69 31.8493 236.406 31.83C237.121 31.8107 237.836 31.772 238.552 31.714C238.668 31.7913 238.735 31.8687 238.755 31.946C238.774 32.004 238.784 32.1007 238.784 32.236ZM253.147 44.387C252.528 42.647 251.909 40.907 251.291 39.167C250.672 37.4077 250.053 35.658 249.435 33.918C248.835 35.658 248.226 37.398 247.608 39.138C246.989 40.878 246.38 42.6277 245.781 44.387H253.147ZM261.325 52.565C261.325 52.681 261.305 52.7873 261.267 52.884C261.247 52.9613 261.18 53 261.064 53C260.928 53 260.59 52.9903 260.049 52.971C259.527 52.9517 259.072 52.942 258.686 52.942C258.086 52.942 257.487 52.942 256.888 52.942C256.308 52.942 255.718 52.9613 255.119 53C254.809 53.0193 254.49 53.029 254.162 53.029C253.852 53.0483 253.543 53.058 253.234 53.058C253.137 53.058 253.069 53.029 253.031 52.971C253.011 52.8937 253.002 52.8163 253.002 52.739L253.031 52.507C253.031 52.449 253.05 52.391 253.089 52.333C253.127 52.2557 253.185 52.217 253.263 52.217H254.684C254.858 52.217 255.051 52.1783 255.264 52.101C255.496 52.0237 255.612 51.8787 255.612 51.666C255.612 51.608 255.544 51.3857 255.409 50.999C255.273 50.593 255.109 50.1097 254.916 49.549C254.722 48.969 254.519 48.389 254.307 47.809C254.094 47.229 253.91 46.7167 253.756 46.272C253.601 45.808 253.495 45.5083 253.437 45.373H245.52C245.462 45.547 245.346 45.866 245.172 46.33C244.998 46.7747 244.804 47.287 244.592 47.867C244.398 48.447 244.195 49.0173 243.983 49.578C243.789 50.1387 243.625 50.622 243.49 51.028C243.374 51.4147 243.316 51.6563 243.316 51.753C243.316 52.0237 243.461 52.1977 243.751 52.275C244.041 52.3523 244.282 52.391 244.476 52.391C244.669 52.391 244.843 52.391 244.998 52.391C245.152 52.391 245.278 52.3813 245.375 52.362C245.413 52.362 245.481 52.362 245.578 52.362C245.694 52.3427 245.761 52.333 245.781 52.333C245.897 52.333 245.964 52.4007 245.984 52.536C246.022 52.6713 246.032 52.7777 246.013 52.855C245.993 52.9323 245.945 52.9807 245.868 53C245.81 53 245.742 53 245.665 53C245.104 53 244.534 52.9903 243.954 52.971C243.374 52.9517 242.803 52.942 242.243 52.942C241.817 52.942 241.402 52.9517 240.996 52.971C240.59 52.9903 240.174 53 239.749 53C239.575 53 239.488 52.9033 239.488 52.71C239.488 52.4393 239.623 52.304 239.894 52.304C239.99 52.304 240.106 52.3137 240.242 52.333C240.377 52.333 240.522 52.333 240.677 52.333C240.889 52.333 241.102 52.275 241.315 52.159C241.547 52.0237 241.74 51.7917 241.895 51.463C241.991 51.289 242.185 50.825 242.475 50.071C242.765 49.317 243.122 48.3793 243.548 47.258C243.973 46.1173 244.418 44.8993 244.882 43.604C245.365 42.2893 245.839 40.9843 246.303 39.689C246.767 38.3937 247.182 37.195 247.55 36.093C247.936 34.991 248.246 34.0823 248.478 33.367C248.71 32.6323 248.826 32.1973 248.826 32.062C248.826 32.0233 248.797 31.975 248.739 31.917C248.681 31.8397 248.652 31.7913 248.652 31.772C248.652 31.6947 248.681 31.6463 248.739 31.627C248.932 31.5883 249.135 31.5593 249.348 31.54C249.56 31.5207 249.763 31.5013 249.957 31.482C250.208 31.4433 250.459 31.4143 250.711 31.395C250.962 31.3563 251.213 31.3273 251.465 31.308L258.976 51.608C259.053 51.8013 259.198 51.956 259.411 52.072C259.643 52.1687 259.855 52.217 260.049 52.217C260.223 52.217 260.397 52.217 260.571 52.217C260.764 52.1977 260.957 52.188 261.151 52.188C261.228 52.188 261.276 52.2363 261.296 52.333C261.315 52.4297 261.325 52.507 261.325 52.565ZM277.635 47.084C277.635 45.5373 277.316 44.3387 276.678 43.488C276.059 42.6373 274.928 42.1927 273.285 42.154C272.975 42.154 272.666 42.154 272.357 42.154C272.047 42.1347 271.738 42.125 271.429 42.125C270.945 42.125 270.452 42.1347 269.95 42.154C269.466 42.1733 268.973 42.183 268.471 42.183V51.26C268.471 51.608 268.567 51.8593 268.761 52.014C268.973 52.1687 269.225 52.2653 269.515 52.304C269.805 52.3233 270.075 52.333 270.327 52.333C270.655 52.333 270.984 52.333 271.313 52.333C271.661 52.3137 271.999 52.2943 272.328 52.275C273.932 52.1783 275.218 51.7143 276.185 50.883C277.151 50.0517 277.635 48.7853 277.635 47.084ZM276.156 36.789C276.156 35.3003 275.75 34.237 274.938 33.599C274.126 32.9417 273.004 32.613 271.574 32.613C271.052 32.613 270.53 32.6227 270.008 32.642C269.505 32.642 268.993 32.6613 268.471 32.7V41.371C268.741 41.371 269.002 41.3807 269.254 41.4C269.505 41.4 269.756 41.4 270.008 41.4C270.491 41.4 271.023 41.3807 271.603 41.342C272.202 41.3033 272.772 41.2067 273.314 41.052C273.874 40.8973 274.338 40.646 274.706 40.298C275.15 39.8533 275.498 39.3217 275.75 38.703C276.02 38.065 276.156 37.427 276.156 36.789ZM280.738 46.62C280.738 47.9733 280.419 49.1527 279.781 50.158C279.143 51.144 278.186 51.8883 276.91 52.391C276.233 52.6617 275.489 52.8453 274.677 52.942C273.884 53.0193 273.12 53.058 272.386 53.058C272.25 53.058 272.105 53.058 271.951 53.058C271.815 53.058 271.68 53.0483 271.545 53.029C270.617 52.9903 269.689 52.9613 268.761 52.942C267.852 52.9033 266.934 52.884 266.006 52.884C265.484 52.884 264.962 52.9227 264.44 53C263.937 53.058 263.425 53.087 262.903 53.087C262.748 53.087 262.661 53.029 262.642 52.913C262.622 52.7777 262.613 52.652 262.613 52.536C262.613 52.3233 262.7 52.217 262.874 52.217C263.144 52.217 263.425 52.217 263.715 52.217C264.024 52.1977 264.314 52.1687 264.585 52.13C264.991 52.072 265.252 51.9173 265.368 51.666C265.503 51.3953 265.58 51.0763 265.6 50.709C265.638 50.3223 265.648 49.9453 265.629 49.578C265.609 49.2107 265.6 48.8433 265.6 48.476C265.6 47.7607 265.6 47.0453 265.6 46.33C265.619 45.5953 265.629 44.8703 265.629 44.155V40.994C265.629 39.95 265.619 38.906 265.6 37.862C265.6 36.818 265.6 35.774 265.6 34.73C265.6 34.5367 265.59 34.353 265.571 34.179C265.571 33.9857 265.542 33.802 265.484 33.628C265.348 33.2413 265.107 33.0093 264.759 32.932C264.43 32.8353 264.092 32.787 263.744 32.787C263.608 32.787 263.463 32.7967 263.309 32.816C263.173 32.816 263.028 32.816 262.874 32.816C262.738 32.816 262.651 32.7483 262.613 32.613C262.593 32.4777 262.584 32.3713 262.584 32.294C262.584 32.2167 262.593 32.1393 262.613 32.062C262.651 31.9653 262.719 31.917 262.816 31.917C263.26 31.917 263.695 31.9363 264.121 31.975C264.546 31.9943 264.971 32.004 265.397 32.004C266.537 32.004 267.659 31.975 268.761 31.917C269.882 31.8397 271.003 31.7623 272.125 31.685C272.279 31.6657 272.424 31.656 272.56 31.656C272.695 31.656 272.83 31.656 272.966 31.656C274.048 31.656 275.063 31.801 276.011 32.091C276.977 32.3617 277.76 32.845 278.36 33.541C278.959 34.237 279.259 35.2133 279.259 36.47C279.259 37.2627 279.046 37.978 278.621 38.616C278.215 39.2347 277.683 39.776 277.026 40.24C276.388 40.6847 275.73 41.0423 275.054 41.313V41.458C275.982 41.6127 276.881 41.893 277.751 42.299C278.621 42.6857 279.336 43.2367 279.897 43.952C280.457 44.648 280.738 45.5373 280.738 46.62ZM300.786 46.446C300.786 46.5813 300.777 46.7263 300.757 46.881C300.738 47.0163 300.709 47.1613 300.67 47.316C300.535 48.1667 300.419 49.0367 300.322 49.926C300.245 50.796 300.129 51.6563 299.974 52.507C299.974 52.6037 299.936 52.6907 299.858 52.768C299.723 52.884 299.559 52.942 299.365 52.942C298.418 52.942 297.471 52.9323 296.523 52.913C295.576 52.8937 294.619 52.884 293.652 52.884C292.473 52.884 291.294 52.884 290.114 52.884C288.954 52.884 287.785 52.9033 286.605 52.942C285.948 52.9613 285.3 52.9807 284.662 53C284.024 53.0387 283.377 53.058 282.719 53.058C282.487 53.058 282.371 52.9227 282.371 52.652C282.371 52.3813 282.507 52.246 282.777 52.246C282.971 52.246 283.154 52.2557 283.328 52.275C283.522 52.275 283.705 52.275 283.879 52.275C284.15 52.275 284.421 52.2267 284.691 52.13C284.981 52.014 285.126 51.8013 285.126 51.492V34.353C285.126 33.9663 285.117 33.6473 285.097 33.396C285.078 33.1253 284.981 32.9223 284.807 32.787C284.653 32.6517 284.353 32.584 283.908 32.584C283.715 32.584 283.531 32.5937 283.357 32.613C283.183 32.6323 283 32.642 282.806 32.642C282.652 32.642 282.555 32.6033 282.516 32.526C282.478 32.4293 282.458 32.3133 282.458 32.178C282.458 32.062 282.468 31.9653 282.487 31.888C282.526 31.7913 282.613 31.743 282.748 31.743C283.386 31.743 284.015 31.7527 284.633 31.772C285.271 31.7913 285.909 31.801 286.547 31.801C287.282 31.801 288.026 31.7913 288.78 31.772C289.534 31.7527 290.279 31.743 291.013 31.743C291.149 31.743 291.226 31.7913 291.245 31.888C291.284 31.9653 291.303 32.0523 291.303 32.149C291.303 32.2263 291.284 32.323 291.245 32.439C291.226 32.5357 291.149 32.584 291.013 32.584C290.762 32.584 290.511 32.584 290.259 32.584C290.027 32.5647 289.786 32.555 289.534 32.555C289.225 32.555 288.916 32.5937 288.606 32.671C288.297 32.7483 288.142 32.99 288.142 33.396C288.142 34.0727 288.133 34.7493 288.113 35.426C288.113 36.1027 288.113 36.7793 288.113 37.456V46.011C288.113 46.8617 288.113 47.722 288.113 48.592C288.133 49.462 288.142 50.3223 288.142 51.173C288.142 51.5017 288.278 51.7433 288.548 51.898C288.819 52.0333 289.128 52.1107 289.476 52.13C289.824 52.1493 290.114 52.159 290.346 52.159C291.197 52.159 292.048 52.1397 292.898 52.101C293.749 52.0623 294.59 51.9753 295.421 51.84C295.963 51.7433 296.475 51.5597 296.958 51.289C297.461 50.999 297.896 50.6413 298.263 50.216C298.747 49.6553 299.114 49.056 299.365 48.418C299.617 47.7607 299.868 47.1033 300.119 46.446C300.177 46.3107 300.245 46.2333 300.322 46.214C300.4 46.1947 300.496 46.185 300.612 46.185C300.67 46.185 300.709 46.2237 300.728 46.301C300.767 46.359 300.786 46.4073 300.786 46.446ZM319.866 48.041C319.866 48.389 319.837 48.7467 319.779 49.114C319.721 49.462 319.673 49.81 319.634 50.158C319.576 50.5447 319.537 50.941 319.518 51.347C319.499 51.7337 319.441 52.1203 319.344 52.507C319.325 52.623 319.267 52.739 319.17 52.855C319.093 52.9517 318.986 53 318.851 53C316.782 53 314.714 52.9903 312.645 52.971C310.576 52.9323 308.508 52.913 306.439 52.913C305.82 52.913 305.192 52.942 304.554 53C303.935 53.0387 303.317 53.058 302.698 53.058C302.601 53.058 302.505 53.029 302.408 52.971C302.331 52.8937 302.292 52.8067 302.292 52.71C302.292 52.594 302.321 52.4877 302.379 52.391C302.437 52.275 302.534 52.217 302.669 52.217C303.075 52.217 303.462 52.1977 303.829 52.159C304.196 52.101 304.496 51.9657 304.728 51.753C304.979 51.521 305.105 51.1537 305.105 50.651V34.005C305.105 33.5603 304.97 33.2703 304.699 33.135C304.428 32.9803 304.1 32.903 303.713 32.903C303.52 32.903 303.336 32.9127 303.162 32.932C302.988 32.932 302.814 32.932 302.64 32.932C302.485 32.932 302.35 32.8933 302.234 32.816C302.118 32.7387 302.06 32.613 302.06 32.439C302.06 32.2843 302.089 32.149 302.147 32.033C302.205 31.917 302.331 31.859 302.524 31.859C302.853 31.859 303.172 31.8687 303.481 31.888C303.81 31.9073 304.129 31.917 304.438 31.917C306.391 31.917 308.343 31.9073 310.296 31.888C312.249 31.8493 314.192 31.83 316.125 31.83C317.014 31.83 317.894 31.801 318.764 31.743C318.841 32.3037 318.938 32.8643 319.054 33.425C319.17 33.9857 319.267 34.5463 319.344 35.107C319.383 35.223 319.412 35.339 319.431 35.455C319.45 35.5517 319.46 35.658 319.46 35.774C319.46 35.9673 319.392 36.1027 319.257 36.18C319.141 36.2573 318.996 36.296 318.822 36.296C318.667 36.296 318.551 36.267 318.474 36.209C318.416 36.1317 318.358 36.0157 318.3 35.861C317.933 34.701 317.44 33.8987 316.821 33.454C316.222 33.0093 315.303 32.787 314.066 32.787H308.034V41.516C308.788 41.516 309.542 41.516 310.296 41.516C311.05 41.4967 311.814 41.4677 312.587 41.429C313.38 41.3903 314.114 41.3227 314.791 41.226C315.487 41.11 316.222 40.9843 316.995 40.849H317.024C317.14 40.849 317.198 40.8973 317.198 40.994C317.198 41.1293 317.14 41.371 317.024 41.719C316.908 42.067 316.821 42.299 316.763 42.415C316.666 42.647 316.512 42.763 316.299 42.763C315.816 42.763 315.313 42.734 314.791 42.676C314.288 42.5987 313.786 42.56 313.283 42.56C312.935 42.5407 312.587 42.5407 312.239 42.56C311.891 42.56 311.533 42.56 311.166 42.56C311.031 42.56 310.886 42.56 310.731 42.56C310.596 42.5407 310.451 42.531 310.296 42.531C310.006 42.531 309.687 42.56 309.339 42.618C308.991 42.6567 308.682 42.7727 308.411 42.966C308.16 43.14 308.034 43.43 308.034 43.836V50.796C308.034 51.4533 308.198 51.84 308.527 51.956C308.856 52.0527 309.291 52.101 309.832 52.101H312.152C312.693 52.101 313.293 52.072 313.95 52.014C314.627 51.956 315.284 51.8303 315.922 51.637C316.56 51.4437 317.082 51.1633 317.488 50.796C317.933 50.39 318.242 49.9453 318.416 49.462C318.609 48.9593 318.832 48.4567 319.083 47.954C319.18 47.78 319.334 47.693 319.547 47.693C319.76 47.693 319.866 47.809 319.866 48.041Z" fill="black"/>
<path d="M177.719 71.13C176.341 71.13 175.301 70.7573 174.599 70.012C173.906 69.2667 173.559 68.257 173.559 66.983C173.559 66.0643 173.711 65.2713 174.014 64.604C174.317 63.928 174.777 63.408 175.392 63.044C176.016 62.68 176.805 62.498 177.758 62.498C178.252 62.498 178.698 62.5327 179.097 62.602C179.504 62.6627 179.886 62.7537 180.241 62.875V64.097C179.53 63.837 178.742 63.707 177.875 63.707C176.809 63.707 176.059 63.9887 175.626 64.552C175.201 65.1153 174.989 65.9257 174.989 66.983C174.989 67.945 175.214 68.6773 175.665 69.18C176.116 69.6827 176.813 69.934 177.758 69.934C178.503 69.934 179.106 69.8473 179.565 69.674V67.334H177.472V66.411H180.774V70.441C180.505 70.6143 180.12 70.7747 179.617 70.922C179.123 71.0607 178.49 71.13 177.719 71.13ZM182.147 71V62.628H185.995C186.931 62.628 187.611 62.8707 188.036 63.356C188.469 63.8327 188.686 64.4827 188.686 65.306C188.686 65.8953 188.539 66.398 188.244 66.814C187.949 67.23 187.525 67.5203 186.97 67.685C187.126 67.7977 187.247 67.919 187.334 68.049C187.421 68.179 187.507 68.3523 187.594 68.569L188.647 71H187.191L186.164 68.66C186.069 68.4347 185.952 68.2743 185.813 68.179C185.683 68.0837 185.458 68.036 185.137 68.036H183.564V71H182.147ZM183.564 66.892H185.618C186.129 66.892 186.532 66.7663 186.827 66.515C187.122 66.2637 187.269 65.8607 187.269 65.306C187.269 64.2573 186.762 63.733 185.748 63.733H183.564V66.892ZM190.082 71V62.628H195.919V63.733H191.499V66.268H195.438V67.36H191.499V69.908H195.919V71H190.082ZM197.229 71V62.628H203.066V63.733H198.646V66.268H202.585V67.36H198.646V69.908H203.066V71H197.229ZM204.377 71V62.628H205.625L209.993 68.79V62.628H211.397V71H210.149L205.794 64.851V71H204.377ZM219.944 71.13C218.566 71.13 217.526 70.7573 216.824 70.012C216.13 69.2667 215.784 68.257 215.784 66.983C215.784 66.0643 215.935 65.2713 216.239 64.604C216.542 63.928 217.001 63.408 217.617 63.044C218.241 62.68 219.029 62.498 219.983 62.498C220.477 62.498 220.923 62.5327 221.322 62.602C221.729 62.6627 222.11 62.7537 222.466 62.875V64.097C221.755 63.837 220.966 63.707 220.1 63.707C219.034 63.707 218.284 63.9887 217.851 64.552C217.426 65.1153 217.214 65.9257 217.214 66.983C217.214 67.945 217.439 68.6773 217.89 69.18C218.34 69.6827 219.038 69.934 219.983 69.934C220.728 69.934 221.33 69.8473 221.79 69.674V67.334H219.697V66.411H222.999V70.441C222.73 70.6143 222.344 70.7747 221.842 70.922C221.348 71.0607 220.715 71.13 219.944 71.13ZM228.077 71.13C226.751 71.13 225.758 70.7833 225.1 70.09C224.441 69.388 224.112 68.3047 224.112 66.84C224.112 65.3147 224.441 64.2097 225.1 63.525C225.758 62.8403 226.751 62.498 228.077 62.498C229.411 62.498 230.404 62.8403 231.054 63.525C231.712 64.2097 232.042 65.3147 232.042 66.84C232.042 68.3047 231.712 69.388 231.054 70.09C230.404 70.7833 229.411 71.13 228.077 71.13ZM228.077 69.934C228.952 69.934 229.593 69.6957 230.001 69.219C230.417 68.7337 230.625 67.9407 230.625 66.84C230.625 65.6787 230.417 64.8683 230.001 64.409C229.593 63.941 228.952 63.707 228.077 63.707C227.21 63.707 226.569 63.941 226.153 64.409C225.745 64.8683 225.542 65.6787 225.542 66.84C225.542 67.9407 225.745 68.7337 226.153 69.219C226.569 69.6957 227.21 69.934 228.077 69.934ZM233.423 71V62.628H234.84V69.908H239.13V71H233.423ZM240.254 71V62.628H243.647C244.886 62.628 245.805 62.9573 246.403 63.616C247.001 64.266 247.3 65.3493 247.3 66.866C247.3 68.296 247.005 69.3447 246.416 70.012C245.826 70.6707 244.903 71 243.647 71H240.254ZM241.671 69.908H243.426C243.972 69.908 244.427 69.83 244.791 69.674C245.155 69.5093 245.428 69.206 245.61 68.764C245.792 68.322 245.883 67.6893 245.883 66.866C245.883 66.0427 245.8 65.4057 245.636 64.955C245.471 64.5043 245.207 64.188 244.843 64.006C244.487 63.824 244.015 63.733 243.426 63.733H241.671V69.908Z" fill="black"/>
<path d="M121.576 45.352C121.576 47.1 121.177 48.5567 120.38 49.722C119.583 50.8873 118.525 51.8227 117.206 52.528C115.918 53.2027 114.507 53.6933 112.974 54C111.471 54.276 109.999 54.414 108.558 54.414C106.687 54.414 104.924 54.1227 103.268 53.54C102.593 53.2947 101.934 53.034 101.29 52.758C100.646 52.4513 99.9713 52.206 99.266 52.022C99.1433 51.0407 98.9287 49.9673 98.622 48.802C98.346 47.6367 98.208 46.5787 98.208 45.628C98.208 45.1987 98.2693 44.8767 98.392 44.662C98.5453 44.4167 98.8673 44.294 99.358 44.294C99.7873 44.294 100.063 44.4013 100.186 44.616C100.309 44.8 100.401 45.0607 100.462 45.398C100.585 45.8273 100.692 46.2567 100.784 46.686C100.876 47.0847 100.983 47.4987 101.106 47.928C101.719 49.768 102.624 51.056 103.82 51.792C105.047 52.528 106.611 52.896 108.512 52.896C110.076 52.896 111.471 52.6813 112.698 52.252C113.955 51.792 114.937 51.056 115.642 50.044C116.378 49.032 116.746 47.6827 116.746 45.996C116.746 44.6773 116.301 43.4967 115.412 42.454C114.523 41.3807 113.541 40.5373 112.468 39.924C112.223 39.7707 111.962 39.6327 111.686 39.51C111.41 39.3873 111.134 39.2647 110.858 39.142C109.907 38.6513 108.941 38.1607 107.96 37.67C107.009 37.1793 106.043 36.704 105.062 36.244C104.111 35.7533 103.13 35.14 102.118 34.404C101.137 33.6373 100.293 32.7633 99.588 31.782C98.9133 30.8007 98.576 29.7273 98.576 28.562C98.576 26.5993 99.0973 24.974 100.14 23.686C101.183 22.398 102.517 21.432 104.142 20.788C105.767 20.144 107.454 19.822 109.202 19.822C110.459 19.822 111.579 19.9753 112.56 20.282C113.572 20.5887 114.569 20.9107 115.55 21.248C116.531 21.5547 117.605 21.7693 118.77 21.892C118.862 22.812 118.954 23.732 119.046 24.652C119.138 25.572 119.276 26.492 119.46 27.412C119.491 27.5347 119.506 27.6573 119.506 27.78C119.537 27.9027 119.552 28.0253 119.552 28.148C119.552 28.6387 119.383 28.9607 119.046 29.114C118.739 29.2367 118.387 29.298 117.988 29.298C117.589 29.298 117.375 29.2213 117.344 29.068C117.313 28.9147 117.267 28.6847 117.206 28.378C116.807 25.9247 115.964 24.0847 114.676 22.858C113.388 21.6007 111.456 20.972 108.88 20.972C106.979 20.972 105.491 21.478 104.418 22.49C103.375 23.502 102.854 24.974 102.854 26.906C102.854 28.194 103.191 29.2827 103.866 30.172C104.541 31.0613 105.43 31.8433 106.534 32.518C107.669 33.162 108.895 33.7753 110.214 34.358C111.563 34.9407 112.897 35.5387 114.216 36.152C115.535 36.7653 116.746 37.486 117.85 38.314C118.985 39.1113 119.889 40.0773 120.564 41.212C121.239 42.3467 121.576 43.7267 121.576 45.352Z" fill="black"/>
<line x1="314" y1="67.5" x2="252" y2="67.5" stroke="black"/>
<line x1="169" y1="67.5" x2="107" y2="67.5" stroke="black"/>
</svg>
